<?xml version="1.0" encoding="utf-8"?>
<svg contentScriptType="text/ecmascript" xmlns:xlink="http://www.w3.org/1999/xlink" zoomAndPan="magnify" contentStyleType="text/css" viewBox="35.0 -1.498833333333323 526.0 550.2626044304471" xmlns:cacoo="http://cacoo.com/" preserveAspectRatio="xMidYMin meet" xmlns="http://www.w3.org/2000/svg" version="1.1"><defs><linearGradient xlink:actuate="onLoad" xlink:type="simple" id="id0" xlink:show="other" xmlns:xlink="http://www.w3.org/1999/xlink"><stop stop-opacity="1.0" stop-color="#ffffff" offset="0%"/><stop stop-opacity="1.0" stop-color="#cccccc" offset="100%"/></linearGradient><linearGradient x1="0%" xmlns:xlink="http://www.w3.org/1999/xlink" y1="0%" x2="0%" y2="100%" xlink:type="simple" xlink:actuate="onLoad" id="id1" xlink:show="other"><stop stop-opacity="1.0" stop-color="#cccccc" offset="0%"/><stop stop-opacity="1.0" stop-color="#ffffff" offset="100%"/></linearGradient><linearGradient xlink:actuate="onLoad" xlink:type="simple" id="id2" xlink:show="other" xmlns:xlink="http://www.w3.org/1999/xlink"><stop stop-opacity="1.0" stop-color="#ffffff" offset="0%"/><stop stop-opacity="1.0" stop-color="#cccccc" offset="100%"/></linearGradient><linearGradient x1="0%" xmlns:xlink="http://www.w3.org/1999/xlink" y1="0%" x2="0%" y2="100%" xlink:type="simple" xlink:actuate="onLoad" id="id3" xlink:show="other"><stop stop-opacity="1.0" stop-color="#cccccc" offset="0%"/><stop stop-opacity="1.0" stop-color="#ffffff" offset="100%"/></linearGradient><marker refX="14.0" refY="7.0" markerUnits="userSpaceOnUse" orient="auto" id="id14" markerHeight="14.0" viewBox="0 0 14.0 14.0" preserveAspectRatio="xMidYMid meet" markerWidth="14.0" overflow="visible"><path fill="#000000" d="M7.0 3.5 L14.0 7.0 L7.0 10.5z" stroke-width="1.0" stroke-linejoin="round" stroke-linecap="round" stroke="#000000"/></marker><linearGradient xlink:actuate="onLoad" xlink:type="simple" id="id17" xlink:show="other" xmlns:xlink="http://www.w3.org/1999/xlink"><stop stop-opacity="1.0" stop-color="#ffffff" offset="0%"/><stop stop-opacity="1.0" stop-color="#cccccc" offset="100%"/></linearGradient><linearGradient x1="0%" xmlns:xlink="http://www.w3.org/1999/xlink" y1="0%" x2="0%" y2="100%" xlink:type="simple" xlink:actuate="onLoad" id="id18" xlink:show="other"><stop stop-opacity="1.0" stop-color="#cccccc" offset="0%"/><stop stop-opacity="1.0" stop-color="#ffffff" offset="100%"/></linearGradient><linearGradient xlink:actuate="onLoad" xlink:type="simple" id="id20" xlink:show="other" xmlns:xlink="http://www.w3.org/1999/xlink"><stop stop-opacity="1.0" stop-color="#ffffff" offset="0%"/><stop stop-opacity="1.0" stop-color="#cccccc" offset="100%"/></linearGradient><linearGradient x1="0%" xmlns:xlink="http://www.w3.org/1999/xlink" y1="0%" x2="0%" y2="100%" xlink:type="simple" xlink:actuate="onLoad" id="id21" xlink:show="other"><stop stop-opacity="1.0" stop-color="#cccccc" offset="0%"/><stop stop-opacity="1.0" stop-color="#ffffff" offset="100%"/></linearGradient><linearGradient xlink:actuate="onLoad" xlink:type="simple" id="id24" xlink:show="other" xmlns:xlink="http://www.w3.org/1999/xlink"><stop stop-opacity="1.0" stop-color="#ffffff" offset="0%"/><stop stop-opacity="1.0" stop-color="#cccccc" offset="100%"/></linearGradient><linearGradient x1="0%" xmlns:xlink="http://www.w3.org/1999/xlink" y1="0%" x2="0%" y2="100%" xlink:type="simple" xlink:actuate="onLoad" id="id25" xlink:show="other"><stop stop-opacity="1.0" stop-color="#cccccc" offset="0%"/><stop stop-opacity="1.0" stop-color="#ffffff" offset="100%"/></linearGradient><linearGradient xlink:actuate="onLoad" xlink:type="simple" id="id26" xlink:show="other" xmlns:xlink="http://www.w3.org/1999/xlink"><stop stop-opacity="1.0" stop-color="#ffffff" offset="0%"/><stop stop-opacity="1.0" stop-color="#cccccc" offset="100%"/></linearGradient><linearGradient x1="0%" xmlns:xlink="http://www.w3.org/1999/xlink" y1="0%" x2="0%" y2="100%" xlink:type="simple" xlink:actuate="onLoad" id="id27" xlink:show="other"><stop stop-opacity="1.0" stop-color="#cccccc" offset="0%"/><stop stop-opacity="1.0" stop-color="#ffffff" offset="100%"/></linearGradient><linearGradient xlink:actuate="onLoad" xlink:type="simple" id="id32" xlink:show="other" xmlns:xlink="http://www.w3.org/1999/xlink"><stop stop-opacity="1.0" stop-color="#ffffff" offset="0%"/><stop stop-opacity="1.0" stop-color="#cccccc" offset="100%"/></linearGradient><linearGradient x1="0%" xmlns:xlink="http://www.w3.org/1999/xlink" y1="0%" x2="0%" y2="100%" xlink:type="simple" xlink:actuate="onLoad" id="id33" xlink:show="other"><stop stop-opacity="1.0" stop-color="#cccccc" offset="0%"/><stop stop-opacity="1.0" stop-color="#ffffff" offset="100%"/></linearGradient><marker refX="14.0" refY="7.0" markerUnits="userSpaceOnUse" orient="auto" id="id47" markerHeight="14.0" viewBox="0 0 14.0 14.0" preserveAspectRatio="xMidYMid meet" markerWidth="14.0" overflow="visible"><path fill="#000000" d="M7.0 3.5 L14.0 7.0 L7.0 10.5z" stroke-width="1.0" stroke-linejoin="round" stroke-linecap="round" stroke="#000000"/></marker><marker refX="14.0" refY="7.0" markerUnits="userSpaceOnUse" orient="auto" id="id48" markerHeight="14.0" viewBox="0 0 14.0 14.0" preserveAspectRatio="xMidYMid meet" markerWidth="14.0" overflow="visible"><path fill="#000000" d="M7.0 3.5 L14.0 7.0 L7.0 10.5z" stroke-width="1.0" stroke-linejoin="round" stroke-linecap="round" stroke="#000000"/></marker><marker refX="14.0" refY="7.0" markerUnits="userSpaceOnUse" orient="auto" id="id49" markerHeight="14.0" viewBox="0 0 14.0 14.0" preserveAspectRatio="xMidYMid meet" markerWidth="14.0" overflow="visible"><path fill="#000000" d="M7.0 3.5 L14.0 7.0 L7.0 10.5z" stroke-width="1.0" stroke-linejoin="round" stroke-linecap="round" stroke="#000000"/></marker><marker refX="14.0" refY="7.0" markerUnits="userSpaceOnUse" orient="auto" id="id50" markerHeight="14.0" viewBox="0 0 14.0 14.0" preserveAspectRatio="xMidYMid meet" markerWidth="14.0" overflow="visible"><path fill="white" d="M7.0 3.5 L14.0 7.0 L7.0 10.5z" stroke-width="1.0" stroke-linejoin="round" stroke-linecap="round" stroke="#000000"/></marker><marker refX="14.0" refY="7.0" markerUnits="userSpaceOnUse" orient="auto" id="id51" markerHeight="14.0" viewBox="0 0 14.0 14.0" preserveAspectRatio="xMidYMid meet" markerWidth="14.0" overflow="visible"><path fill="white" d="M7.0 3.5 L14.0 7.0 L7.0 10.5z" stroke-width="1.0" stroke-linejoin="round" stroke-linecap="round" stroke="#000000"/></marker><marker refX="14.0" refY="7.0" markerUnits="userSpaceOnUse" orient="auto" id="id52" markerHeight="14.0" viewBox="0 0 14.0 14.0" preserveAspectRatio="xMidYMid meet" markerWidth="14.0" overflow="visible"><path fill="white" d="M7.0 3.5 L14.0 7.0 L7.0 10.5z" stroke-width="1.0" stroke-linejoin="round" stroke-linecap="round" stroke="#000000"/></marker></defs><g><g transform="translate(128.0 325.0)"><path fill="url(#id0)" d="M46.677 14.078 L32.562000999999995 0.0 L6.189 0.0 Q5.189 0.0 5.189 1.0 L5.189 51.33 Q5.189 52.331 6.189 52.331 L45.677 52.331 Q46.677 52.331 46.677 51.33 L46.677 14.078 L46.677 14.078z" stroke-width="1.0" stroke-linejoin="round" stroke="#000000"/><path fill="#b6b038" fill-opacity="1.0" d="M36.673 18.899 Q36.673 19.899 35.673 19.899 L1.0 19.899 Q0.0 19.899 0.0 18.899 L0.0 7.055 Q0.0 6.055 1.0 6.055 L35.673 6.055 Q36.673 6.055 36.673 7.055 L36.673 18.899999 L36.673 18.899z" stroke-width="1.0" stroke-linejoin="round" stroke="#000000"/><path fill="#ffffff" fill-opacity="1.0" d="M10.875000009999999 16.412 Q11.00399972 16.442000999999998 11.25199987 16.442000999999998 Q11.8479996 16.442000999999998 11.8479996 15.430000999999999 L11.8479996 10.261001199999999 L13.6339998 10.261001199999999 L13.6339998 15.480001 Q13.6339998 17.633001 11.8379994 17.633001 Q11.244883549999999 17.633001 10.8359995 17.543999999999997 L10.87599946 16.412999999999997 L13.6330005 9.4169995 L11.847000099999999 9.4169995 L11.847000099999999 8.107 L13.6330005 8.107 L13.6330005 9.4169995" stroke="none"/><path fill="#ffffff" fill-opacity="1.0" d="M14.9130004044 10.260999435 L16.5599998 10.260999435 L16.5599998 11.193999 Q17.098734200000003 10.141999 18.504 10.141999 Q20.716 10.141999 20.716 12.7509992 Q20.716 15.5489995 18.3549998 15.5489995 Q17.1820624 15.5489995 16.7180007 14.705999 L16.6980003 17.5139997 L14.912 17.5139997 L14.912 10.26199984 L17.7900012 11.5109994 Q16.699001600000003 11.5109994 16.699001600000003 12.8609998 Q16.699001600000003 14.18 17.7900012 14.18 Q18.872002000000002 14.18 18.872002000000002 12.7910001 Q18.872002000000002 11.5110004 17.7900012 11.5110004" stroke="none"/><path fill="#ffffff" fill-opacity="1.0" d="M27.0560004 14.824999599999998 Q27.0560004 17.632998999999998 23.9410006 17.632998999999998 Q22.8827597 17.632998999999998 21.9669997 17.305 L22.0560004 15.895999699999999 Q22.9259326 16.322999799999998 23.8020007 16.322999799999998 Q25.3890006 16.322999799999998 25.3890006 14.824999599999998 Q24.745791 15.43 23.633 15.43 Q21.331 15.43 21.331 12.831000099999999 Q21.331 10.142 23.663000699999998 10.142 Q24.7944266 10.142 25.419001299999998 11.193999999999999 L25.4390017 10.261000435 L27.0560023 10.261000435 L27.0560023 14.8250006 L24.188999799999998 14.0609997 Q25.3300005 14.0609997 25.3300005 12.7309997 Q25.3300005 11.510999499999999 24.188999799999998 11.510999499999999 Q23.1770007 11.510999499999999 23.1770007 12.800999399999998 Q23.1770007 14.0609997 24.188999799999998 14.0609997" stroke="none"/><path fill="#c8c8c8" fill-opacity="1.0" d="M39.751 43.339 L13.091 43.339 L13.091 23.579 L39.752 23.579 L39.752 43.34 L39.751 43.339z" stroke="none"/><path fill="#6e6e6e" fill-opacity="1.0" d="M19.82 30.188 Q17.8091225 30.188 16.0186257 32.097626 Q15.3432526 32.8179324 14.5152039 34.0021708 Q14.238611599999999 34.3977435 13.8019003 35.0511554 Q13.237184919999999 35.896088 13.091 36.1110003 L13.091 40.132 Q14.9729885 42.384354 22.514 41.799 Q30.056573999999998 41.213528 28.411999 38.888001 Q27.750194999999998 37.9519465 26.375672 35.7546428 Q25.183374999999998 33.8486407 24.495624999999997 32.9611247 Q22.346688 30.188 19.8209995 30.188 L19.82 30.188z" stroke="none"/><path fill="#8c8c8c" fill-opacity="1.0" d="M18.774 26.9660004 Q18.774 28.9920014 16.748001000000002 28.9920014 Q14.722001 28.9920014 14.722001 26.9660004 Q14.722001 24.939 16.748001000000002 24.939 Q18.774002 24.939 18.774002 26.9660004 L18.774 26.9660004z" stroke="none"/><path fill="#8c8c8c" fill-opacity="1.0" d="M33.995998 29.68 Q32.527294 29.68 28.022248 32.7514989 Q27.377360000000003 33.1911809 26.084318000000003 34.0914265 Q24.737912 35.0288274 24.086998 35.474029 Q21.719086 37.0936124 20.150997500000003 37.994999 Q17.710373 39.398123999999996 15.156622200000001 39.905372 Q13.879747700000001 40.159 13.090998 40.132 L13.090998 43.339 L39.751999 43.339 L39.751999 41.892002 L39.751999 38.224002999999996 L39.751999 33.088001 Q38.246163 31.5582616 37.141373 30.8080003 Q35.480351 29.68 33.995998 29.68 L33.995998 29.68z" stroke="none"/><path fill="url(#id1)" d="M46.676998 14.144 L33.586998 14.144 Q32.586998 14.144 32.586998 13.144 L32.586998 0.0 L46.676998 14.144 L46.676998 14.144z" stroke-width="1.0" stroke-linejoin="round" stroke="#000000"/></g><g transform="translate(257.82816666666673 13.501166666666677)"><path fill="url(#id2)" d="M46.677 14.078 L32.562000999999995 0.0 L6.189 0.0 Q5.189 0.0 5.189 1.0 L5.189 51.33 Q5.189 52.331 6.189 52.331 L45.677 52.331 Q46.677 52.331 46.677 51.33 L46.677 14.078 L46.677 14.078z" stroke-width="1.0" stroke-linejoin="round" stroke="#000000"/><path fill="#b6b038" fill-opacity="1.0" d="M36.673 18.899 Q36.673 19.899 35.673 19.899 L1.0 19.899 Q0.0 19.899 0.0 18.899 L0.0 7.055 Q0.0 6.055 1.0 6.055 L35.673 6.055 Q36.673 6.055 36.673 7.055 L36.673 18.899999 L36.673 18.899z" stroke-width="1.0" stroke-linejoin="round" stroke="#000000"/><path fill="#ffffff" fill-opacity="1.0" d="M10.875000009999999 16.412 Q11.00399972 16.442000999999998 11.25199987 16.442000999999998 Q11.8479996 16.442000999999998 11.8479996 15.430000999999999 L11.8479996 10.261001199999999 L13.6339998 10.261001199999999 L13.6339998 15.480001 Q13.6339998 17.633001 11.8379994 17.633001 Q11.244883549999999 17.633001 10.8359995 17.543999999999997 L10.87599946 16.412999999999997 L13.6330005 9.4169995 L11.847000099999999 9.4169995 L11.847000099999999 8.107 L13.6330005 8.107 L13.6330005 9.4169995" stroke="none"/><path fill="#ffffff" fill-opacity="1.0" d="M14.9130004044 10.260999435 L16.5599998 10.260999435 L16.5599998 11.193999 Q17.098734200000003 10.141999 18.504 10.141999 Q20.716 10.141999 20.716 12.7509992 Q20.716 15.5489995 18.3549998 15.5489995 Q17.1820624 15.5489995 16.7180007 14.705999 L16.6980003 17.5139997 L14.912 17.5139997 L14.912 10.26199984 L17.7900012 11.5109994 Q16.699001600000003 11.5109994 16.699001600000003 12.8609998 Q16.699001600000003 14.18 17.7900012 14.18 Q18.872002000000002 14.18 18.872002000000002 12.7910001 Q18.872002000000002 11.5110004 17.7900012 11.5110004" stroke="none"/><path fill="#ffffff" fill-opacity="1.0" d="M27.0560004 14.824999599999998 Q27.0560004 17.632998999999998 23.9410006 17.632998999999998 Q22.8827597 17.632998999999998 21.9669997 17.305 L22.0560004 15.895999699999999 Q22.9259326 16.322999799999998 23.8020007 16.322999799999998 Q25.3890006 16.322999799999998 25.3890006 14.824999599999998 Q24.745791 15.43 23.633 15.43 Q21.331 15.43 21.331 12.831000099999999 Q21.331 10.142 23.663000699999998 10.142 Q24.7944266 10.142 25.419001299999998 11.193999999999999 L25.4390017 10.261000435 L27.0560023 10.261000435 L27.0560023 14.8250006 L24.188999799999998 14.0609997 Q25.3300005 14.0609997 25.3300005 12.7309997 Q25.3300005 11.510999499999999 24.188999799999998 11.510999499999999 Q23.1770007 11.510999499999999 23.1770007 12.800999399999998 Q23.1770007 14.0609997 24.188999799999998 14.0609997" stroke="none"/><path fill="#c8c8c8" fill-opacity="1.0" d="M39.751 43.339 L13.091 43.339 L13.091 23.579 L39.752 23.579 L39.752 43.34 L39.751 43.339z" stroke="none"/><path fill="#6e6e6e" fill-opacity="1.0" d="M19.82 30.188 Q17.8091225 30.188 16.0186257 32.097626 Q15.3432526 32.8179324 14.5152039 34.0021708 Q14.238611599999999 34.3977435 13.8019003 35.0511554 Q13.237184919999999 35.896088 13.091 36.1110003 L13.091 40.132 Q14.9729885 42.384354 22.514 41.799 Q30.056573999999998 41.213528 28.411999 38.888001 Q27.750194999999998 37.9519465 26.375672 35.7546428 Q25.183374999999998 33.8486407 24.495624999999997 32.9611247 Q22.346688 30.188 19.8209995 30.188 L19.82 30.188z" stroke="none"/><path fill="#8c8c8c" fill-opacity="1.0" d="M18.774 26.9660004 Q18.774 28.9920014 16.748001000000002 28.9920014 Q14.722001 28.9920014 14.722001 26.9660004 Q14.722001 24.939 16.748001000000002 24.939 Q18.774002 24.939 18.774002 26.9660004 L18.774 26.9660004z" stroke="none"/><path fill="#8c8c8c" fill-opacity="1.0" d="M33.995998 29.68 Q32.527294 29.68 28.022248 32.7514989 Q27.377360000000003 33.1911809 26.084318000000003 34.0914265 Q24.737912 35.0288274 24.086998 35.474029 Q21.719086 37.0936124 20.150997500000003 37.994999 Q17.710373 39.398123999999996 15.156622200000001 39.905372 Q13.879747700000001 40.159 13.090998 40.132 L13.090998 43.339 L39.751999 43.339 L39.751999 41.892002 L39.751999 38.224002999999996 L39.751999 33.088001 Q38.246163 31.5582616 37.141373 30.8080003 Q35.480351 29.68 33.995998 29.68 L33.995998 29.68z" stroke="none"/><path fill="url(#id3)" d="M46.676998 14.144 L33.586998 14.144 Q32.586998 14.144 32.586998 13.144 L32.586998 0.0 L46.676998 14.144 L46.676998 14.144z" stroke-width="1.0" stroke-linejoin="round" stroke="#000000"/></g><g transform="translate(221.16666666666669 342.33333333333337)"><path fill="#fff2cc" fill-opacity="1.0" d="M10.0 0.0 L120.0 0.0 L110.0 10.0 L0.0 10.0 L10.0 0.0z" stroke-width="1.0" stroke-linejoin="round" stroke="#000000"/><path fill="#fff2cc" fill-opacity="1.0" d="M110.0 10.0 L120.0 0.0 L120.0 50.0 L110.0 60.0 L110.0 10.0z" stroke-width="1.0" stroke-linejoin="round" stroke="#000000"/><path fill="#fff2cc" fill-opacity="1.0" d="M0.0 10.0 L110.0 10.0 L110.0 60.0 L0.0 60.0 L0.0 10.0z" stroke-width="1.0" stroke-linejoin="round" stroke="#000000"/><g transform="translate(0.0 10.0)"><clipPath id="id4"><path d="M0 0 L110.0 0 L110.0 50.0 L0 50.0z"/></clipPath><text font-size="12" clip-path="url(#id4)" text-decoration="none" fill="#000000" font-family="Arial,Arial" font-style="normal" font-weight="normal"><tspan x="30.0" xml:space="preserve" y="29.25" textLength="50.0">Displayer</tspan></text></g></g><g transform="translate(221.16666666666669 292.33333333333337)"><path fill="#b9e0a5" fill-opacity="1.0" d="M10.0 0.0 L120.0 0.0 L110.0 10.0 L0.0 10.0 L10.0 0.0z" stroke-width="1.0" stroke-linejoin="round" stroke="#000000"/><path fill="#b9e0a5" fill-opacity="1.0" d="M110.0 10.0 L120.0 0.0 L120.0 50.0 L110.0 60.0 L110.0 10.0z" stroke-width="1.0" stroke-linejoin="round" stroke="#000000"/><path fill="#b9e0a5" fill-opacity="1.0" d="M0.0 10.0 L110.0 10.0 L110.0 60.0 L0.0 60.0 L0.0 10.0z" stroke-width="1.0" stroke-linejoin="round" stroke="#000000"/><g transform="translate(0.0 10.0)"><clipPath id="id5"><path d="M0 0 L110.0 0 L110.0 50.0 L0 50.0z"/></clipPath><text font-size="12" clip-path="url(#id5)" text-decoration="none" fill="#000000" font-family="Arial,Arial" font-style="normal" font-weight="normal"><tspan x="16.0" xml:space="preserve" y="29.25" textLength="78.0">MemoryCache</tspan></text></g></g><g transform="translate(221.16666666666669 242.33333333333337)"><path fill="#d5e8d4" fill-opacity="1.0" d="M10.0 0.0 L120.0 0.0 L110.0 10.0 L0.0 10.0 L10.0 0.0z" stroke-width="1.0" stroke-linejoin="round" stroke="#000000"/><path fill="#d5e8d4" fill-opacity="1.0" d="M110.0 10.0 L120.0 0.0 L120.0 50.0 L110.0 60.0 L110.0 10.0z" stroke-width="1.0" stroke-linejoin="round" stroke="#000000"/><path fill="#d5e8d4" fill-opacity="1.0" d="M0.0 10.0 L110.0 10.0 L110.0 60.0 L0.0 60.0 L0.0 10.0z" stroke-width="1.0" stroke-linejoin="round" stroke="#000000"/><g transform="translate(0.0 10.0)"><clipPath id="id6"><path d="M0 0 L110.0 0 L110.0 50.0 L0 50.0z"/></clipPath><text font-size="12" clip-path="url(#id6)" text-decoration="none" fill="#000000" font-family="Arial,Arial" font-style="normal" font-weight="normal"><tspan x="41.5" xml:space="preserve" y="22.75" textLength="26.5">Filter</tspan></text><text font-size="10" clip-path="url(#id6)" text-decoration="none" fill="#000000" font-family="Arial,Arial" font-style="normal" font-weight="normal"><tspan x="22.0" xml:space="preserve" y="36.25" textLength="65.5">BeforeMemory</tspan></text></g></g><g transform="translate(221.16666666666669 192.33333333333334)"><path fill="#a9c4eb" fill-opacity="1.0" d="M10.0 0.0 L120.0 0.0 L110.0 10.0 L0.0 10.0 L10.0 0.0z" stroke-width="1.0" stroke-linejoin="round" stroke="#000000"/><path fill="#a9c4eb" fill-opacity="1.0" d="M110.0 10.0 L120.0 0.0 L120.0 50.00000000000003 L110.0 60.00000000000003 L110.0 10.0z" stroke-width="1.0" stroke-linejoin="round" stroke="#000000"/><path fill="#a9c4eb" fill-opacity="1.0" d="M0.0 10.0 L110.0 10.0 L110.0 60.00000000000003 L0.0 60.00000000000003 L0.0 10.0z" stroke-width="1.0" stroke-linejoin="round" stroke="#000000"/><g transform="translate(0.0 10.0)"><clipPath id="id7"><path d="M0 0 L110.0 0 L110.0 50.00000000000003 L0 50.00000000000003z"/></clipPath><text font-size="12" clip-path="url(#id7)" text-decoration="none" fill="#000000" font-family="Arial,Arial" font-style="normal" font-weight="normal"><tspan x="26.0" xml:space="preserve" y="29.250000000000014" textLength="58.0">DiskCache</tspan></text></g></g><g transform="translate(221.16666666666669 142.33333333333334)"><path fill="#d4e1f5" fill-opacity="1.0" d="M10.0 0.0 L120.0 0.0 L110.0 10.0 L0.0 10.0 L10.0 0.0z" stroke-width="1.0" stroke-linejoin="round" stroke="#000000"/><path fill="#d4e1f5" fill-opacity="1.0" d="M110.0 10.0 L120.0 0.0 L120.0 50.00000000000003 L110.0 60.00000000000003 L110.0 10.0z" stroke-width="1.0" stroke-linejoin="round" stroke="#000000"/><path fill="#d4e1f5" fill-opacity="1.0" d="M0.0 10.0 L110.0 10.0 L110.0 60.00000000000003 L0.0 60.00000000000003 L0.0 10.0z" stroke-width="1.0" stroke-linejoin="round" stroke="#000000"/><g transform="translate(0.0 10.0)"><clipPath id="id8"><path d="M0 0 L110.0 0 L110.0 50.00000000000003 L0 50.00000000000003z"/></clipPath><text font-size="12" clip-path="url(#id8)" text-decoration="none" fill="#000000" font-family="Arial,Arial" font-style="normal" font-weight="normal"><tspan x="41.5" xml:space="preserve" y="22.750000000000014" textLength="26.5">Filter</tspan></text><text font-size="10" clip-path="url(#id8)" text-decoration="none" fill="#000000" font-family="Arial,Arial" font-style="normal" font-weight="normal"><tspan x="30.5" xml:space="preserve" y="36.250000000000014" textLength="48.5">BeforeDisk</tspan></text></g></g><g transform="translate(221.16666666666669 92.33333333333334)"><path fill="#c3abd0" fill-opacity="1.0" d="M10.0 0.0 L120.0 0.0 L110.0 10.0 L0.0 10.0 L10.0 0.0z" stroke-width="1.0" stroke-linejoin="round" stroke="#000000"/><path fill="#c3abd0" fill-opacity="1.0" d="M110.0 10.0 L120.0 0.0 L120.0 50.0 L110.0 60.0 L110.0 10.0z" stroke-width="1.0" stroke-linejoin="round" stroke="#000000"/><path fill="#c3abd0" fill-opacity="1.0" d="M0.0 10.0 L110.0 10.0 L110.0 60.0 L0.0 60.0 L0.0 10.0z" stroke-width="1.0" stroke-linejoin="round" stroke="#000000"/><g transform="translate(0.0 10.0)"><clipPath id="id9"><path d="M0 0 L110.0 0 L110.0 50.0 L0 50.0z"/></clipPath><text font-size="12" clip-path="url(#id9)" text-decoration="none" fill="#000000" font-family="Arial,Arial" font-style="normal" font-weight="normal"><tspan x="28.5" xml:space="preserve" y="29.25" textLength="53.0">Download</tspan></text></g></g><g transform="translate(370.0 142.33333333333334)"><path fill="#d4e1f5" fill-opacity="1.0" d="M10.0 0.0 L80.0 0.0 L70.0 10.0 L0.0 10.0 L10.0 0.0z" stroke-width="1.0" stroke-linejoin="round" stroke="#000000"/><path fill="#d4e1f5" fill-opacity="1.0" d="M70.0 10.0 L80.0 0.0 L80.0 50.00000000000003 L70.0 60.00000000000003 L70.0 10.0z" stroke-width="1.0" stroke-linejoin="round" stroke="#000000"/><path fill="#d4e1f5" fill-opacity="1.0" d="M0.0 10.0 L70.0 10.0 L70.0 60.00000000000003 L0.0 60.00000000000003 L0.0 10.0z" stroke-width="1.0" stroke-linejoin="round" stroke="#000000"/><g transform="translate(0.0 10.0)"><clipPath id="id10"><path d="M0 0 L70.0 0 L70.0 50.00000000000003 L0 50.00000000000003z"/></clipPath><text font-size="12" clip-path="url(#id10)" text-decoration="none" fill="#000000" font-family="Arial,Arial" font-style="normal" font-weight="normal"><tspan x="16.5" xml:space="preserve" y="16.250000000000014" textLength="36.5">Resize</tspan></text><text font-size="10" clip-path="url(#id10)" text-decoration="none" fill="#000000" font-family="Arial,Arial" font-style="normal" font-weight="normal"><tspan x="8.0" xml:space="preserve" y="29.750000000000014" textLength="54.0">smaller than</tspan><tspan x="10.5" xml:space="preserve" y="42.750000000000014" textLength="49.0">device size</tspan></text></g></g><g transform="translate(370.0 242.33333333333337)"><path fill="#d5e8d4" fill-opacity="1.0" d="M10.0 0.0 L80.0 0.0 L70.0 10.0 L0.0 10.0 L10.0 0.0z" stroke-width="1.0" stroke-linejoin="round" stroke="#000000"/><path fill="#d5e8d4" fill-opacity="1.0" d="M70.0 10.0 L80.0 0.0 L80.0 50.0 L70.0 60.0 L70.0 10.0z" stroke-width="1.0" stroke-linejoin="round" stroke="#000000"/><path fill="#d5e8d4" fill-opacity="1.0" d="M0.0 10.0 L70.0 10.0 L70.0 60.0 L0.0 60.0 L0.0 10.0z" stroke-width="1.0" stroke-linejoin="round" stroke="#000000"/><g transform="translate(0.0 10.0)"><clipPath id="id11"><path d="M0 0 L70.0 0 L70.0 50.0 L0 50.0z"/></clipPath><text font-size="12" clip-path="url(#id11)" text-decoration="none" fill="#000000" font-family="Arial,Arial" font-style="normal" font-weight="normal"><tspan x="16.5" xml:space="preserve" y="22.75" textLength="36.5">Resize</tspan></text><text font-size="10" clip-path="url(#id11)" text-decoration="none" fill="#000000" font-family="Arial,Arial" font-style="normal" font-weight="normal"><tspan x="9.0" xml:space="preserve" y="36.25" textLength="51.5">display size</tspan></text></g></g><g transform="translate(460.0 242.33333333333337)"><path fill="#d5e8d4" fill-opacity="1.0" d="M10.0 0.0 L80.0 0.0 L70.0 10.0 L0.0 10.0 L10.0 0.0z" stroke-width="1.0" stroke-linejoin="round" stroke="#000000"/><path fill="#d5e8d4" fill-opacity="1.0" d="M70.0 10.0 L80.0 0.0 L80.0 50.0 L70.0 60.0 L70.0 10.0z" stroke-width="1.0" stroke-linejoin="round" stroke="#000000"/><path fill="#d5e8d4" fill-opacity="1.0" d="M0.0 10.0 L70.0 10.0 L70.0 60.0 L0.0 60.0 L0.0 10.0z" stroke-width="1.0" stroke-linejoin="round" stroke="#000000"/><g transform="translate(0.0 10.0)"><clipPath id="id12"><path d="M0 0 L70.0 0 L70.0 50.0 L0 50.0z"/></clipPath><text font-size="12" clip-path="url(#id12)" text-decoration="none" fill="#000000" font-family="Arial,Arial" font-style="normal" font-weight="normal"><tspan x="10.5" xml:space="preserve" y="29.25" textLength="48.5">Rounded</tspan></text></g></g><g transform="translate(370.0 342.33333333333337)"><path fill="#fff2cc" fill-opacity="1.0" d="M10.0 0.0 L80.0 0.0 L70.0 10.0 L0.0 10.0 L10.0 0.0z" stroke-width="1.0" stroke-linejoin="round" stroke="#000000"/><path fill="#fff2cc" fill-opacity="1.0" d="M70.0 10.0 L80.0 0.0 L80.0 50.0 L70.0 60.0 L70.0 10.0z" stroke-width="1.0" stroke-linejoin="round" stroke="#000000"/><path fill="#fff2cc" fill-opacity="1.0" d="M0.0 10.0 L70.0 10.0 L70.0 60.0 L0.0 60.0 L0.0 10.0z" stroke-width="1.0" stroke-linejoin="round" stroke="#000000"/><g transform="translate(0.0 10.0)"><clipPath id="id13"><path d="M0 0 L70.0 0 L70.0 50.0 L0 50.0z"/></clipPath><text font-size="12" clip-path="url(#id13)" text-decoration="none" fill="#000000" font-family="Arial,Arial" font-style="normal" font-weight="normal"><tspan x="14.5" xml:space="preserve" y="29.25" textLength="40.5">Fade In</tspan></text></g></g><path fill="none" marker-end="url(#id14)" d="M281.16666616666686 65.83216666666668 L281.16666616666674 95.83216666666668" stroke-width="1.0" stroke-linejoin="round" stroke="#000000"/><g transform="translate(153.0 382.0)"><path fill="#d5e8d4" fill-opacity="1.0" d="M41.000000000000014 15.5327570323713 L0.0 15.5327570323713 L0.0 0.0 L41.000000000000014 0.0 L41.000000000000014 15.5327570323713z" stroke-width="1.0" stroke-linejoin="round" stroke="#000000"/><g transform="translate(1.0 1.0)"><clipPath id="id15"><path d="M0 0 L39.0 0 L39.0 13.53275703237125 L0 13.53275703237125z"/></clipPath><text font-size="8" clip-path="url(#id15)" text-decoration="none" fill="#000000" font-family="Arial,Arial" font-style="normal" font-weight="normal"><tspan x="6.0" xml:space="preserve" y="9.516378516185625" textLength="26.5">Filter M</tspan></text></g></g><g transform="translate(153.0 367.0)"><path fill="#d4e1f5" fill-opacity="1.0" d="M41.00000000000005 15.5327570323713 L0.0 15.5327570323713 L0.0 0.0 L41.00000000000005 0.0 L41.00000000000005 15.5327570323713z" stroke-width="1.0" stroke-linejoin="round" stroke="#000000"/><g transform="translate(1.0 1.0)"><clipPath id="id16"><path d="M0 0 L38.99999999999994 0 L38.99999999999994 13.53275703237125 L0 13.53275703237125z"/></clipPath><text font-size="8" clip-path="url(#id16)" text-decoration="none" fill="#000000" font-family="Arial,Arial" font-style="normal" font-weight="normal"><tspan x="7.0" xml:space="preserve" y="9.516378516185625" textLength="25.0">Filter A</tspan></text></g></g><g transform="translate(128.0 222.33333333333337)"><path fill="url(#id17)" d="M46.67699999999999 14.078 L32.56200099999999 0.0 L6.188999999999999 0.0 Q5.188999999999999 0.0 5.188999999999999 1.0 L5.188999999999999 51.330000000000005 Q5.188999999999999 52.33100000000001 6.188999999999999 52.33100000000001 L45.67699999999999 52.33100000000001 Q46.67699999999999 52.33100000000001 46.67699999999999 51.330000000000005 L46.67699999999999 14.078 L46.67699999999999 14.078z" stroke-width="1.0" stroke-linejoin="round" stroke="#000000"/><path fill="#b6b038" fill-opacity="1.0" d="M36.672999999999995 18.899 Q36.672999999999995 19.899 35.673 19.899 L0.9999999999999999 19.899 Q0.0 19.899 0.0 18.899 L0.0 7.055 Q0.0 6.055 0.9999999999999999 6.055 L35.673 6.055 Q36.672999999999995 6.055 36.672999999999995 7.055 L36.672999999999995 18.899999 L36.672999999999995 18.899z" stroke-width="1.0" stroke-linejoin="round" stroke="#000000"/><path fill="#ffffff" fill-opacity="1.0" d="M10.875000009999999 16.412 Q11.00399972 16.442000999999998 11.25199987 16.442000999999998 Q11.8479996 16.442000999999998 11.8479996 15.430001 L11.8479996 10.261001199999999 L13.6339998 10.261001199999999 L13.6339998 15.480001000000001 Q13.6339998 17.633001 11.8379994 17.633001 Q11.244883549999999 17.633001 10.8359995 17.543999999999997 L10.87599946 16.412999999999997 L13.6330005 9.4169995 L11.8470001 9.4169995 L11.8470001 8.107 L13.6330005 8.107 L13.6330005 9.4169995" stroke="none"/><path fill="#ffffff" fill-opacity="1.0" d="M14.913000404399998 10.260999435 L16.5599998 10.260999435 L16.5599998 11.193999 Q17.0987342 10.141999 18.503999999999998 10.141999 Q20.715999999999998 10.141999 20.715999999999998 12.7509992 Q20.715999999999998 15.5489995 18.354999799999998 15.5489995 Q17.1820624 15.5489995 16.718000699999997 14.705999000000002 L16.698000299999997 17.513999700000003 L14.911999999999999 17.513999700000003 L14.911999999999999 10.26199984 L17.7900012 11.5109994 Q16.6990016 11.5109994 16.6990016 12.8609998 Q16.6990016 14.180000000000001 17.7900012 14.180000000000001 Q18.872002 14.180000000000001 18.872002 12.7910001 Q18.872002 11.5110004 17.7900012 11.5110004" stroke="none"/><path fill="#ffffff" fill-opacity="1.0" d="M27.056000400000002 14.8249996 Q27.056000400000002 17.632998999999998 23.9410006 17.632998999999998 Q22.882759699999998 17.632998999999998 21.966999699999995 17.305 L22.056000399999995 15.895999699999999 Q22.925932599999996 16.3229998 23.802000699999997 16.3229998 Q25.3890006 16.3229998 25.3890006 14.8249996 Q24.745790999999997 15.43 23.633 15.43 Q21.330999999999996 15.43 21.330999999999996 12.831000099999999 Q21.330999999999996 10.142 23.663000699999998 10.142 Q24.794426599999998 10.142 25.419001299999998 11.193999999999999 L25.4390017 10.261000435 L27.0560023 10.261000435 L27.0560023 14.8250006 L24.188999799999998 14.0609997 Q25.330000499999997 14.0609997 25.330000499999997 12.7309997 Q25.330000499999997 11.510999499999999 24.188999799999998 11.510999499999999 Q23.177000699999997 11.510999499999999 23.177000699999997 12.800999399999998 Q23.177000699999997 14.0609997 24.188999799999998 14.0609997" stroke="none"/><path fill="#c8c8c8" fill-opacity="1.0" d="M39.751 43.339 L13.091 43.339 L13.091 23.579000000000004 L39.752 23.579000000000004 L39.752 43.34 L39.751 43.339z" stroke="none"/><path fill="#6e6e6e" fill-opacity="1.0" d="M19.82 30.188 Q17.8091225 30.188 16.0186257 32.097626 Q15.3432526 32.8179324 14.5152039 34.0021708 Q14.238611599999999 34.3977435 13.8019003 35.0511554 Q13.237184919999999 35.896088 13.091 36.1110003 L13.091 40.132 Q14.9729885 42.384354 22.514 41.799 Q30.056574000000005 41.213528 28.411999 38.888001 Q27.750195 37.9519465 26.375672 35.7546428 Q25.183375 33.8486407 24.495625 32.9611247 Q22.346688 30.188 19.8209995 30.188 L19.82 30.188z" stroke="none"/><path fill="#8c8c8c" fill-opacity="1.0" d="M18.773999999999997 26.966000400000002 Q18.773999999999997 28.992001400000003 16.748001 28.992001400000003 Q14.722000999999999 28.992001400000003 14.722000999999999 26.966000400000002 Q14.722000999999999 24.939 16.748001 24.939 Q18.774001999999996 24.939 18.774001999999996 26.966000400000002 L18.773999999999997 26.966000400000002z" stroke="none"/><path fill="#8c8c8c" fill-opacity="1.0" d="M33.995998 29.68 Q32.527294 29.68 28.022247999999998 32.7514989 Q27.377359999999996 33.1911809 26.084318 34.0914265 Q24.737912 35.0288274 24.086998 35.474029 Q21.719085999999997 37.093612400000005 20.1509975 37.994999 Q17.710373 39.398124 15.156622200000001 39.905372 Q13.879747700000001 40.159 13.090998 40.132000000000005 L13.090998 43.339000000000006 L39.75199899999999 43.339000000000006 L39.75199899999999 41.892002000000005 L39.75199899999999 38.224003 L39.75199899999999 33.088001 Q38.246162999999996 31.5582616 37.141372999999994 30.8080003 Q35.48035099999999 29.68 33.995998 29.68 L33.995998 29.68z" stroke="none"/><path fill="url(#id18)" d="M46.676998 14.144 L33.586998 14.144 Q32.586998 14.144 32.586998 13.143999999999998 L32.586998 0.0 L46.676998 14.144 L46.676998 14.144z" stroke-width="1.0" stroke-linejoin="round" stroke="#000000"/></g><g transform="translate(153.0 263.33333333333337)"><path fill="#d4e1f5" fill-opacity="1.0" d="M41.000000000000064 15.532757032371299 L0.0 15.532757032371299 L0.0 0.0 L41.000000000000064 0.0 L41.000000000000064 15.532757032371299z" stroke-width="1.0" stroke-linejoin="round" stroke="#000000"/><g transform="translate(1.0 1.0)"><clipPath id="id19"><path d="M0 0 L39.0 0 L39.0 13.53275703237125 L0 13.53275703237125z"/></clipPath><text font-size="8" clip-path="url(#id19)" text-decoration="none" fill="#000000" font-family="Arial,Arial" font-style="normal" font-weight="normal"><tspan x="7.0" xml:space="preserve" y="9.516378516185625" textLength="25.0">Filter A</tspan></text></g></g><g transform="translate(50.0 325.0)"><path fill="url(#id20)" d="M46.677 14.078 L32.562000999999995 0.0 L6.189 0.0 Q5.189 0.0 5.189 1.0 L5.189 51.33 Q5.189 52.331 6.189 52.331 L45.677 52.331 Q46.677 52.331 46.677 51.33 L46.677 14.078 L46.677 14.078z" stroke-width="1.0" stroke-linejoin="round" stroke="#000000"/><path fill="#b6b038" fill-opacity="1.0" d="M36.673 18.899 Q36.673 19.899 35.673 19.899 L1.0 19.899 Q0.0 19.899 0.0 18.899 L0.0 7.055 Q0.0 6.055 1.0 6.055 L35.673 6.055 Q36.673 6.055 36.673 7.055 L36.673 18.899999 L36.673 18.899z" stroke-width="1.0" stroke-linejoin="round" stroke="#000000"/><path fill="#ffffff" fill-opacity="1.0" d="M10.875000009999999 16.412 Q11.00399972 16.442000999999998 11.25199987 16.442000999999998 Q11.8479996 16.442000999999998 11.8479996 15.430000999999999 L11.8479996 10.261001199999999 L13.6339998 10.261001199999999 L13.6339998 15.480001 Q13.6339998 17.633001 11.8379994 17.633001 Q11.244883549999999 17.633001 10.8359995 17.543999999999997 L10.87599946 16.412999999999997 L13.6330005 9.4169995 L11.847000099999999 9.4169995 L11.847000099999999 8.107 L13.6330005 8.107 L13.6330005 9.4169995" stroke="none"/><path fill="#ffffff" fill-opacity="1.0" d="M14.9130004044 10.260999435 L16.5599998 10.260999435 L16.5599998 11.193999 Q17.098734200000003 10.141999 18.504 10.141999 Q20.716 10.141999 20.716 12.7509992 Q20.716 15.5489995 18.3549998 15.5489995 Q17.1820624 15.5489995 16.7180007 14.705999 L16.6980003 17.5139997 L14.912 17.5139997 L14.912 10.26199984 L17.7900012 11.5109994 Q16.699001600000003 11.5109994 16.699001600000003 12.8609998 Q16.699001600000003 14.18 17.7900012 14.18 Q18.872002000000002 14.18 18.872002000000002 12.7910001 Q18.872002000000002 11.5110004 17.7900012 11.5110004" stroke="none"/><path fill="#ffffff" fill-opacity="1.0" d="M27.0560004 14.824999599999998 Q27.0560004 17.632998999999998 23.9410006 17.632998999999998 Q22.8827597 17.632998999999998 21.9669997 17.305 L22.0560004 15.895999699999999 Q22.9259326 16.322999799999998 23.8020007 16.322999799999998 Q25.3890006 16.322999799999998 25.3890006 14.824999599999998 Q24.745791 15.43 23.633 15.43 Q21.331 15.43 21.331 12.831000099999999 Q21.331 10.142 23.663000699999998 10.142 Q24.7944266 10.142 25.419001299999998 11.193999999999999 L25.4390017 10.261000435 L27.0560023 10.261000435 L27.0560023 14.8250006 L24.188999799999998 14.0609997 Q25.3300005 14.0609997 25.3300005 12.7309997 Q25.3300005 11.510999499999999 24.188999799999998 11.510999499999999 Q23.1770007 11.510999499999999 23.1770007 12.800999399999998 Q23.1770007 14.0609997 24.188999799999998 14.0609997" stroke="none"/><path fill="#c8c8c8" fill-opacity="1.0" d="M39.751 43.339 L13.091 43.339 L13.091 23.579 L39.752 23.579 L39.752 43.34 L39.751 43.339z" stroke="none"/><path fill="#6e6e6e" fill-opacity="1.0" d="M19.82 30.188 Q17.8091225 30.188 16.0186257 32.097626 Q15.3432526 32.8179324 14.5152039 34.0021708 Q14.238611599999999 34.3977435 13.8019003 35.0511554 Q13.237184919999999 35.896088 13.091 36.1110003 L13.091 40.132 Q14.9729885 42.384354 22.514 41.799 Q30.056573999999998 41.213528 28.411999 38.888001 Q27.750194999999998 37.9519465 26.375672 35.7546428 Q25.183374999999998 33.8486407 24.495624999999997 32.9611247 Q22.346688 30.188 19.8209995 30.188 L19.82 30.188z" stroke="none"/><path fill="#8c8c8c" fill-opacity="1.0" d="M18.774 26.9660004 Q18.774 28.9920014 16.748001000000002 28.9920014 Q14.722001 28.9920014 14.722001 26.9660004 Q14.722001 24.939 16.748001000000002 24.939 Q18.774002 24.939 18.774002 26.9660004 L18.774 26.9660004z" stroke="none"/><path fill="#8c8c8c" fill-opacity="1.0" d="M33.995998 29.68 Q32.527294 29.68 28.022248 32.7514989 Q27.377360000000003 33.1911809 26.084318000000003 34.0914265 Q24.737912 35.0288274 24.086998 35.474029 Q21.719086 37.0936124 20.150997500000003 37.994999 Q17.710373 39.398123999999996 15.156622200000001 39.905372 Q13.879747700000001 40.159 13.090998 40.132 L13.090998 43.339 L39.751999 43.339 L39.751999 41.892002 L39.751999 38.224002999999996 L39.751999 33.088001 Q38.246163 31.5582616 37.141373 30.8080003 Q35.480351 29.68 33.995998 29.68 L33.995998 29.68z" stroke="none"/><path fill="url(#id21)" d="M46.676998 14.144 L33.586998 14.144 Q32.586998 14.144 32.586998 13.144 L32.586998 0.0 L46.676998 14.144 L46.676998 14.144z" stroke-width="1.0" stroke-linejoin="round" stroke="#000000"/></g><g transform="translate(74.0 382.0)"><path fill="#d5e8d4" fill-opacity="1.0" d="M41.00000000000009 15.5327570323713 L0.0 15.5327570323713 L0.0 0.0 L41.00000000000009 0.0 L41.00000000000009 15.5327570323713z" stroke-width="1.0" stroke-linejoin="round" stroke="#000000"/><g transform="translate(1.0 1.0)"><clipPath id="id22"><path d="M0 0 L39.0 0 L39.0 13.53275703237125 L0 13.53275703237125z"/></clipPath><text font-size="8" clip-path="url(#id22)" text-decoration="none" fill="#000000" font-family="Arial,Arial" font-style="normal" font-weight="normal"><tspan x="7.0" xml:space="preserve" y="9.516378516185625" textLength="25.0">Filter S</tspan></text></g></g><g transform="translate(74.0 367.0)"><path fill="#d4e1f5" fill-opacity="1.0" d="M41.00000000000009 15.5327570323713 L0.0 15.5327570323713 L0.0 0.0 L41.00000000000009 0.0 L41.00000000000009 15.5327570323713z" stroke-width="1.0" stroke-linejoin="round" stroke="#000000"/><g transform="translate(1.0 1.0)"><clipPath id="id23"><path d="M0 0 L39.0 0 L39.0 13.53275703237125 L0 13.53275703237125z"/></clipPath><text font-size="8" clip-path="url(#id23)" text-decoration="none" fill="#000000" font-family="Arial,Arial" font-style="normal" font-weight="normal"><tspan x="7.0" xml:space="preserve" y="9.516378516185625" textLength="25.0">Filter A</tspan></text></g></g><g transform="translate(324.0 446.0)"><path fill="url(#id24)" d="M46.677 14.078 L32.562000999999995 0.0 L6.189 0.0 Q5.189 0.0 5.189 1.0 L5.189 51.33 Q5.189 52.331 6.189 52.331 L45.677 52.331 Q46.677 52.331 46.677 51.33 L46.677 14.078 L46.677 14.078z" stroke-width="1.0" stroke-linejoin="round" stroke="#000000"/><path fill="#b6b038" fill-opacity="1.0" d="M36.673 18.899 Q36.673 19.899 35.673 19.899 L1.0 19.899 Q0.0 19.899 0.0 18.899 L0.0 7.055 Q0.0 6.055 1.0 6.055 L35.673 6.055 Q36.673 6.055 36.673 7.055 L36.673 18.899999 L36.673 18.899z" stroke-width="1.0" stroke-linejoin="round" stroke="#000000"/><path fill="#ffffff" fill-opacity="1.0" d="M10.875000009999999 16.412 Q11.00399972 16.442000999999998 11.25199987 16.442000999999998 Q11.8479996 16.442000999999998 11.8479996 15.430000999999999 L11.8479996 10.261001199999999 L13.6339998 10.261001199999999 L13.6339998 15.480001 Q13.6339998 17.633001 11.8379994 17.633001 Q11.244883549999999 17.633001 10.8359995 17.543999999999997 L10.87599946 16.412999999999997 L13.6330005 9.4169995 L11.847000099999999 9.4169995 L11.847000099999999 8.107 L13.6330005 8.107 L13.6330005 9.4169995" stroke="none"/><path fill="#ffffff" fill-opacity="1.0" d="M14.9130004044 10.260999435 L16.5599998 10.260999435 L16.5599998 11.193999 Q17.098734200000003 10.141999 18.504 10.141999 Q20.716 10.141999 20.716 12.7509992 Q20.716 15.5489995 18.3549998 15.5489995 Q17.1820624 15.5489995 16.7180007 14.705999 L16.6980003 17.5139997 L14.912 17.5139997 L14.912 10.26199984 L17.7900012 11.5109994 Q16.699001600000003 11.5109994 16.699001600000003 12.8609998 Q16.699001600000003 14.18 17.7900012 14.18 Q18.872002000000002 14.18 18.872002000000002 12.7910001 Q18.872002000000002 11.5110004 17.7900012 11.5110004" stroke="none"/><path fill="#ffffff" fill-opacity="1.0" d="M27.0560004 14.824999599999998 Q27.0560004 17.632998999999998 23.9410006 17.632998999999998 Q22.8827597 17.632998999999998 21.9669997 17.305 L22.0560004 15.895999699999999 Q22.9259326 16.322999799999998 23.8020007 16.322999799999998 Q25.3890006 16.322999799999998 25.3890006 14.824999599999998 Q24.745791 15.43 23.633 15.43 Q21.331 15.43 21.331 12.831000099999999 Q21.331 10.142 23.663000699999998 10.142 Q24.7944266 10.142 25.419001299999998 11.193999999999999 L25.4390017 10.261000435 L27.0560023 10.261000435 L27.0560023 14.8250006 L24.188999799999998 14.0609997 Q25.3300005 14.0609997 25.3300005 12.7309997 Q25.3300005 11.510999499999999 24.188999799999998 11.510999499999999 Q23.1770007 11.510999499999999 23.1770007 12.800999399999998 Q23.1770007 14.0609997 24.188999799999998 14.0609997" stroke="none"/><path fill="#c8c8c8" fill-opacity="1.0" d="M39.751 43.339 L13.091 43.339 L13.091 23.579 L39.752 23.579 L39.752 43.34 L39.751 43.339z" stroke="none"/><path fill="#6e6e6e" fill-opacity="1.0" d="M19.82 30.188 Q17.8091225 30.188 16.0186257 32.097626 Q15.3432526 32.8179324 14.5152039 34.0021708 Q14.238611599999999 34.3977435 13.8019003 35.0511554 Q13.237184919999999 35.896088 13.091 36.1110003 L13.091 40.132 Q14.9729885 42.384354 22.514 41.799 Q30.056573999999998 41.213528 28.411999 38.888001 Q27.750194999999998 37.9519465 26.375672 35.7546428 Q25.183374999999998 33.8486407 24.495624999999997 32.9611247 Q22.346688 30.188 19.8209995 30.188 L19.82 30.188z" stroke="none"/><path fill="#8c8c8c" fill-opacity="1.0" d="M18.774 26.9660004 Q18.774 28.9920014 16.748001000000002 28.9920014 Q14.722001 28.9920014 14.722001 26.9660004 Q14.722001 24.939 16.748001000000002 24.939 Q18.774002 24.939 18.774002 26.9660004 L18.774 26.9660004z" stroke="none"/><path fill="#8c8c8c" fill-opacity="1.0" d="M33.995998 29.68 Q32.527294 29.68 28.022248 32.7514989 Q27.377360000000003 33.1911809 26.084318000000003 34.0914265 Q24.737912 35.0288274 24.086998 35.474029 Q21.719086 37.0936124 20.150997500000003 37.994999 Q17.710373 39.398123999999996 15.156622200000001 39.905372 Q13.879747700000001 40.159 13.090998 40.132 L13.090998 43.339 L39.751999 43.339 L39.751999 41.892002 L39.751999 38.224002999999996 L39.751999 33.088001 Q38.246163 31.5582616 37.141373 30.8080003 Q35.480351 29.68 33.995998 29.68 L33.995998 29.68z" stroke="none"/><path fill="url(#id25)" d="M46.676998 14.144 L33.586998 14.144 Q32.586998 14.144 32.586998 13.144 L32.586998 0.0 L46.676998 14.144 L46.676998 14.144z" stroke-width="1.0" stroke-linejoin="round" stroke="#000000"/></g><g transform="translate(258.0 446.0)"><path fill="url(#id26)" d="M46.677 14.078 L32.562000999999995 0.0 L6.189 0.0 Q5.189 0.0 5.189 1.0 L5.189 51.33 Q5.189 52.331 6.189 52.331 L45.677 52.331 Q46.677 52.331 46.677 51.33 L46.677 14.078 L46.677 14.078z" stroke-width="1.0" stroke-linejoin="round" stroke="#000000"/><path fill="#b6b038" fill-opacity="1.0" d="M36.673 18.899 Q36.673 19.899 35.673 19.899 L1.0 19.899 Q0.0 19.899 0.0 18.899 L0.0 7.055 Q0.0 6.055 1.0 6.055 L35.673 6.055 Q36.673 6.055 36.673 7.055 L36.673 18.899999 L36.673 18.899z" stroke-width="1.0" stroke-linejoin="round" stroke="#000000"/><path fill="#ffffff" fill-opacity="1.0" d="M10.875000009999999 16.412 Q11.00399972 16.442000999999998 11.25199987 16.442000999999998 Q11.8479996 16.442000999999998 11.8479996 15.430000999999999 L11.8479996 10.261001199999999 L13.6339998 10.261001199999999 L13.6339998 15.480001 Q13.6339998 17.633001 11.8379994 17.633001 Q11.244883549999999 17.633001 10.8359995 17.543999999999997 L10.87599946 16.412999999999997 L13.6330005 9.4169995 L11.847000099999999 9.4169995 L11.847000099999999 8.107 L13.6330005 8.107 L13.6330005 9.4169995" stroke="none"/><path fill="#ffffff" fill-opacity="1.0" d="M14.9130004044 10.260999435 L16.5599998 10.260999435 L16.5599998 11.193999 Q17.098734200000003 10.141999 18.504 10.141999 Q20.716 10.141999 20.716 12.7509992 Q20.716 15.5489995 18.3549998 15.5489995 Q17.1820624 15.5489995 16.7180007 14.705999 L16.6980003 17.5139997 L14.912 17.5139997 L14.912 10.26199984 L17.7900012 11.5109994 Q16.699001600000003 11.5109994 16.699001600000003 12.8609998 Q16.699001600000003 14.18 17.7900012 14.18 Q18.872002000000002 14.18 18.872002000000002 12.7910001 Q18.872002000000002 11.5110004 17.7900012 11.5110004" stroke="none"/><path fill="#ffffff" fill-opacity="1.0" d="M27.0560004 14.824999599999998 Q27.0560004 17.632998999999998 23.9410006 17.632998999999998 Q22.8827597 17.632998999999998 21.9669997 17.305 L22.0560004 15.895999699999999 Q22.9259326 16.322999799999998 23.8020007 16.322999799999998 Q25.3890006 16.322999799999998 25.3890006 14.824999599999998 Q24.745791 15.43 23.633 15.43 Q21.331 15.43 21.331 12.831000099999999 Q21.331 10.142 23.663000699999998 10.142 Q24.7944266 10.142 25.419001299999998 11.193999999999999 L25.4390017 10.261000435 L27.0560023 10.261000435 L27.0560023 14.8250006 L24.188999799999998 14.0609997 Q25.3300005 14.0609997 25.3300005 12.7309997 Q25.3300005 11.510999499999999 24.188999799999998 11.510999499999999 Q23.1770007 11.510999499999999 23.1770007 12.800999399999998 Q23.1770007 14.0609997 24.188999799999998 14.0609997" stroke="none"/><path fill="#c8c8c8" fill-opacity="1.0" d="M39.751 43.339 L13.091 43.339 L13.091 23.579 L39.752 23.579 L39.752 43.34 L39.751 43.339z" stroke="none"/><path fill="#6e6e6e" fill-opacity="1.0" d="M19.82 30.188 Q17.8091225 30.188 16.0186257 32.097626 Q15.3432526 32.8179324 14.5152039 34.0021708 Q14.238611599999999 34.3977435 13.8019003 35.0511554 Q13.237184919999999 35.896088 13.091 36.1110003 L13.091 40.132 Q14.9729885 42.384354 22.514 41.799 Q30.056573999999998 41.213528 28.411999 38.888001 Q27.750194999999998 37.9519465 26.375672 35.7546428 Q25.183374999999998 33.8486407 24.495624999999997 32.9611247 Q22.346688 30.188 19.8209995 30.188 L19.82 30.188z" stroke="none"/><path fill="#8c8c8c" fill-opacity="1.0" d="M18.774 26.9660004 Q18.774 28.9920014 16.748001000000002 28.9920014 Q14.722001 28.9920014 14.722001 26.9660004 Q14.722001 24.939 16.748001000000002 24.939 Q18.774002 24.939 18.774002 26.9660004 L18.774 26.9660004z" stroke="none"/><path fill="#8c8c8c" fill-opacity="1.0" d="M33.995998 29.68 Q32.527294 29.68 28.022248 32.7514989 Q27.377360000000003 33.1911809 26.084318000000003 34.0914265 Q24.737912 35.0288274 24.086998 35.474029 Q21.719086 37.0936124 20.150997500000003 37.994999 Q17.710373 39.398123999999996 15.156622200000001 39.905372 Q13.879747700000001 40.159 13.090998 40.132 L13.090998 43.339 L39.751999 43.339 L39.751999 41.892002 L39.751999 38.224002999999996 L39.751999 33.088001 Q38.246163 31.5582616 37.141373 30.8080003 Q35.480351 29.68 33.995998 29.68 L33.995998 29.68z" stroke="none"/><path fill="url(#id27)" d="M46.676998 14.144 L33.586998 14.144 Q32.586998 14.144 32.586998 13.144 L32.586998 0.0 L46.676998 14.144 L46.676998 14.144z" stroke-width="1.0" stroke-linejoin="round" stroke="#000000"/></g><g transform="translate(281.0 502.6982570323713)"><path fill="#d5e8d4" fill-opacity="1.0" d="M41.00000000000009 15.5327570323713 L0.0 15.5327570323713 L0.0 0.0 L41.00000000000009 0.0 L41.00000000000009 15.5327570323713z" stroke-width="1.0" stroke-linejoin="round" stroke="#000000"/><g transform="translate(1.0 1.0)"><clipPath id="id28"><path d="M0 0 L39.0 0 L39.0 13.53275703237125 L0 13.53275703237125z"/></clipPath><text font-size="8" clip-path="url(#id28)" text-decoration="none" fill="#000000" font-family="Arial,Arial" font-style="normal" font-weight="normal"><tspan x="6.0" xml:space="preserve" y="9.516378516185625" textLength="26.5">Filter M</tspan></text></g></g><g transform="translate(347.0 502.6982570323713)"><path fill="#d5e8d4" fill-opacity="1.0" d="M41.00000000000009 15.5327570323713 L0.0 15.5327570323713 L0.0 0.0 L41.00000000000009 0.0 L41.00000000000009 15.5327570323713z" stroke-width="1.0" stroke-linejoin="round" stroke="#000000"/><g transform="translate(1.0 1.0)"><clipPath id="id29"><path d="M0 0 L39.0 0 L39.0 13.53275703237125 L0 13.53275703237125z"/></clipPath><text font-size="8" clip-path="url(#id29)" text-decoration="none" fill="#000000" font-family="Arial,Arial" font-style="normal" font-weight="normal"><tspan x="6.0" xml:space="preserve" y="9.516378516185625" textLength="26.5">Filter M</tspan></text></g></g><g transform="translate(281.0 487.6982570323713)"><path fill="#d4e1f5" fill-opacity="1.0" d="M41.00000000000009 15.5327570323713 L0.0 15.5327570323713 L0.0 0.0 L41.00000000000009 0.0 L41.00000000000009 15.5327570323713z" stroke-width="1.0" stroke-linejoin="round" stroke="#000000"/><g transform="translate(1.0 1.0)"><clipPath id="id30"><path d="M0 0 L39.0 0 L39.0 13.53275703237125 L0 13.53275703237125z"/></clipPath><text font-size="8" clip-path="url(#id30)" text-decoration="none" fill="#000000" font-family="Arial,Arial" font-style="normal" font-weight="normal"><tspan x="7.0" xml:space="preserve" y="9.516378516185625" textLength="25.0">Filter A</tspan></text></g></g><g transform="translate(347.0 487.6982570323713)"><path fill="#d4e1f5" fill-opacity="1.0" d="M41.00000000000009 15.5327570323713 L0.0 15.5327570323713 L0.0 0.0 L41.00000000000009 0.0 L41.00000000000009 15.5327570323713z" stroke-width="1.0" stroke-linejoin="round" stroke="#000000"/><g transform="translate(1.0 1.0)"><clipPath id="id31"><path d="M0 0 L39.0 0 L39.0 13.53275703237125 L0 13.53275703237125z"/></clipPath><text font-size="8" clip-path="url(#id31)" text-decoration="none" fill="#000000" font-family="Arial,Arial" font-style="normal" font-weight="normal"><tspan x="7.0" xml:space="preserve" y="9.516378516185625" textLength="25.0">Filter A</tspan></text></g></g><g transform="translate(192.0 446.0)"><path fill="url(#id32)" d="M46.677 14.078 L32.562000999999995 0.0 L6.189 0.0 Q5.189 0.0 5.189 1.0 L5.189 51.33 Q5.189 52.331 6.189 52.331 L45.677 52.331 Q46.677 52.331 46.677 51.33 L46.677 14.078 L46.677 14.078z" stroke-width="1.0" stroke-linejoin="round" stroke="#000000"/><path fill="#b6b038" fill-opacity="1.0" d="M36.673 18.899 Q36.673 19.899 35.673 19.899 L1.0 19.899 Q0.0 19.899 0.0 18.899 L0.0 7.055 Q0.0 6.055 1.0 6.055 L35.673 6.055 Q36.673 6.055 36.673 7.055 L36.673 18.899999 L36.673 18.899z" stroke-width="1.0" stroke-linejoin="round" stroke="#000000"/><path fill="#ffffff" fill-opacity="1.0" d="M10.875000009999999 16.412 Q11.00399972 16.442000999999998 11.25199987 16.442000999999998 Q11.8479996 16.442000999999998 11.8479996 15.430000999999999 L11.8479996 10.261001199999999 L13.6339998 10.261001199999999 L13.6339998 15.480001 Q13.6339998 17.633001 11.8379994 17.633001 Q11.244883549999999 17.633001 10.8359995 17.543999999999997 L10.87599946 16.412999999999997 L13.6330005 9.4169995 L11.847000099999999 9.4169995 L11.847000099999999 8.107 L13.6330005 8.107 L13.6330005 9.4169995" stroke="none"/><path fill="#ffffff" fill-opacity="1.0" d="M14.9130004044 10.260999435 L16.5599998 10.260999435 L16.5599998 11.193999 Q17.098734200000003 10.141999 18.504 10.141999 Q20.716 10.141999 20.716 12.7509992 Q20.716 15.5489995 18.3549998 15.5489995 Q17.1820624 15.5489995 16.7180007 14.705999 L16.6980003 17.5139997 L14.912 17.5139997 L14.912 10.26199984 L17.7900012 11.5109994 Q16.699001600000003 11.5109994 16.699001600000003 12.8609998 Q16.699001600000003 14.18 17.7900012 14.18 Q18.872002000000002 14.18 18.872002000000002 12.7910001 Q18.872002000000002 11.5110004 17.7900012 11.5110004" stroke="none"/><path fill="#ffffff" fill-opacity="1.0" d="M27.0560004 14.824999599999998 Q27.0560004 17.632998999999998 23.9410006 17.632998999999998 Q22.8827597 17.632998999999998 21.9669997 17.305 L22.0560004 15.895999699999999 Q22.9259326 16.322999799999998 23.8020007 16.322999799999998 Q25.3890006 16.322999799999998 25.3890006 14.824999599999998 Q24.745791 15.43 23.633 15.43 Q21.331 15.43 21.331 12.831000099999999 Q21.331 10.142 23.663000699999998 10.142 Q24.7944266 10.142 25.419001299999998 11.193999999999999 L25.4390017 10.261000435 L27.0560023 10.261000435 L27.0560023 14.8250006 L24.188999799999998 14.0609997 Q25.3300005 14.0609997 25.3300005 12.7309997 Q25.3300005 11.510999499999999 24.188999799999998 11.510999499999999 Q23.1770007 11.510999499999999 23.1770007 12.800999399999998 Q23.1770007 14.0609997 24.188999799999998 14.0609997" stroke="none"/><path fill="#c8c8c8" fill-opacity="1.0" d="M39.751 43.339 L13.091 43.339 L13.091 23.579 L39.752 23.579 L39.752 43.34 L39.751 43.339z" stroke="none"/><path fill="#6e6e6e" fill-opacity="1.0" d="M19.82 30.188 Q17.8091225 30.188 16.0186257 32.097626 Q15.3432526 32.8179324 14.5152039 34.0021708 Q14.238611599999999 34.3977435 13.8019003 35.0511554 Q13.237184919999999 35.896088 13.091 36.1110003 L13.091 40.132 Q14.9729885 42.384354 22.514 41.799 Q30.056573999999998 41.213528 28.411999 38.888001 Q27.750194999999998 37.9519465 26.375672 35.7546428 Q25.183374999999998 33.8486407 24.495624999999997 32.9611247 Q22.346688 30.188 19.8209995 30.188 L19.82 30.188z" stroke="none"/><path fill="#8c8c8c" fill-opacity="1.0" d="M18.774 26.9660004 Q18.774 28.9920014 16.748001000000002 28.9920014 Q14.722001 28.9920014 14.722001 26.9660004 Q14.722001 24.939 16.748001000000002 24.939 Q18.774002 24.939 18.774002 26.9660004 L18.774 26.9660004z" stroke="none"/><path fill="#8c8c8c" fill-opacity="1.0" d="M33.995998 29.68 Q32.527294 29.68 28.022248 32.7514989 Q27.377360000000003 33.1911809 26.084318000000003 34.0914265 Q24.737912 35.0288274 24.086998 35.474029 Q21.719086 37.0936124 20.150997500000003 37.994999 Q17.710373 39.398123999999996 15.156622200000001 39.905372 Q13.879747700000001 40.159 13.090998 40.132 L13.090998 43.339 L39.751999 43.339 L39.751999 41.892002 L39.751999 38.224002999999996 L39.751999 33.088001 Q38.246163 31.5582616 37.141373 30.8080003 Q35.480351 29.68 33.995998 29.68 L33.995998 29.68z" stroke="none"/><path fill="url(#id33)" d="M46.676998 14.144 L33.586998 14.144 Q32.586998 14.144 32.586998 13.144 L32.586998 0.0 L46.676998 14.144 L46.676998 14.144z" stroke-width="1.0" stroke-linejoin="round" stroke="#000000"/></g><g transform="translate(215.0 502.6982570323713)"><path fill="#d5e8d4" fill-opacity="1.0" d="M41.00000000000009 15.5327570323713 L0.0 15.5327570323713 L0.0 0.0 L41.00000000000009 0.0 L41.00000000000009 15.5327570323713z" stroke-width="1.0" stroke-linejoin="round" stroke="#000000"/><g transform="translate(1.0 1.0)"><clipPath id="id34"><path d="M0 0 L39.0 0 L39.0 13.53275703237125 L0 13.53275703237125z"/></clipPath><text font-size="8" clip-path="url(#id34)" text-decoration="none" fill="#000000" font-family="Arial,Arial" font-style="normal" font-weight="normal"><tspan x="7.0" xml:space="preserve" y="9.516378516185625" textLength="25.0">Filter S</tspan></text></g></g><g transform="translate(215.0 487.6982570323713)"><path fill="#d4e1f5" fill-opacity="1.0" d="M41.00000000000009 15.5327570323713 L0.0 15.5327570323713 L0.0 0.0 L41.00000000000009 0.0 L41.00000000000009 15.5327570323713z" stroke-width="1.0" stroke-linejoin="round" stroke="#000000"/><g transform="translate(1.0 1.0)"><clipPath id="id35"><path d="M0 0 L39.0 0 L39.0 13.53275703237125 L0 13.53275703237125z"/></clipPath><text font-size="8" clip-path="url(#id35)" text-decoration="none" fill="#000000" font-family="Arial,Arial" font-style="normal" font-weight="normal"><tspan x="7.0" xml:space="preserve" y="9.516378516185625" textLength="25.0">Filter A</tspan></text></g></g><g transform="translate(281.0 518.2310140647426)"><path fill="#fff2cc" fill-opacity="1.0" d="M41.00000000000009 15.5327570323713 L0.0 15.5327570323713 L0.0 0.0 L41.00000000000009 0.0 L41.00000000000009 15.5327570323713z" stroke-width="1.0" stroke-linejoin="round" stroke="#000000"/><g transform="translate(1.0 1.0)"><clipPath id="id36"><path d="M0 0 L39.0 0 L39.0 13.53275703237125 L0 13.53275703237125z"/></clipPath><text font-size="8" clip-path="url(#id36)" text-decoration="none" fill="#000000" font-family="Arial,Arial" font-style="normal" font-weight="normal"><tspan x="6.0" xml:space="preserve" y="9.516378516185625" textLength="27.0">Fade In</tspan></text></g></g><g transform="translate(215.0 518.2310140647426)"><path fill="#fff2cc" fill-opacity="1.0" d="M41.00000000000009 15.5327570323713 L0.0 15.5327570323713 L0.0 0.0 L41.00000000000009 0.0 L41.00000000000009 15.5327570323713z" stroke-width="1.0" stroke-linejoin="round" stroke="#000000"/><g transform="translate(1.0 1.0)"><clipPath id="id37"><path d="M0 0 L39.0 0 L39.0 13.53275703237125 L0 13.53275703237125z"/></clipPath><text font-size="8" clip-path="url(#id37)" text-decoration="none" fill="#000000" font-family="Arial,Arial" font-style="normal" font-weight="normal"><tspan x="6.0" xml:space="preserve" y="9.516378516185625" textLength="27.0">Fade In</tspan></text></g></g><g transform="translate(153.0 248.33333333333337)"><path fill="#c3abd0" fill-opacity="1.0" d="M41.000000000000064 15.532757032371299 L0.0 15.532757032371299 L0.0 0.0 L41.000000000000064 0.0 L41.000000000000064 15.532757032371299z" stroke-width="1.0" stroke-linejoin="round" stroke="#000000"/><g transform="translate(1.0 1.0)"><clipPath id="id38"><path d="M0 0 L39.0 0 L39.0 13.53275703237125 L0 13.53275703237125z"/></clipPath><text font-size="8" clip-path="url(#id38)" text-decoration="none" fill="#000000" font-family="Arial,Arial" font-style="normal" font-weight="normal"><tspan x="7.5" xml:space="preserve" y="9.516378516185625" textLength="23.5">URL A</tspan></text></g></g><g transform="translate(153.0 352.0)"><path fill="#c3abd0" fill-opacity="1.0" d="M41.000000000000014 15.532757032371299 L0.0 15.532757032371299 L0.0 0.0 L41.000000000000014 0.0 L41.000000000000014 15.532757032371299z" stroke-width="1.0" stroke-linejoin="round" stroke="#000000"/><g transform="translate(1.0 1.0)"><clipPath id="id39"><path d="M0 0 L38.99999999999994 0 L38.99999999999994 13.53275703237125 L0 13.53275703237125z"/></clipPath><text font-size="8" clip-path="url(#id39)" text-decoration="none" fill="#000000" font-family="Arial,Arial" font-style="normal" font-weight="normal"><tspan x="7.5" xml:space="preserve" y="9.516378516185625" textLength="23.5">URL A</tspan></text></g></g><g transform="translate(74.0 352.0)"><path fill="#c3abd0" fill-opacity="1.0" d="M41.000000000000064 15.532757032371299 L0.0 15.532757032371299 L0.0 0.0 L41.000000000000064 0.0 L41.000000000000064 15.532757032371299z" stroke-width="1.0" stroke-linejoin="round" stroke="#000000"/><g transform="translate(1.0 1.0)"><clipPath id="id40"><path d="M0 0 L39.0 0 L39.0 13.532757032371194 L0 13.532757032371194z"/></clipPath><text font-size="8" clip-path="url(#id40)" text-decoration="none" fill="#000000" font-family="Arial,Arial" font-style="normal" font-weight="normal"><tspan x="7.5" xml:space="preserve" y="9.516378516185597" textLength="23.5">URL A</tspan></text></g></g><g transform="translate(281.1666666666667 39.666666666666686)"><path fill="#c3abd0" fill-opacity="1.0" d="M41.000000000000064 15.532757032371299 L0.0 15.532757032371299 L0.0 0.0 L41.000000000000064 0.0 L41.000000000000064 15.532757032371299z" stroke-width="1.0" stroke-linejoin="round" stroke="#000000"/><g transform="translate(1.0 1.0)"><clipPath id="id41"><path d="M0 0 L39.0 0 L39.0 13.53275703237125 L0 13.53275703237125z"/></clipPath><text font-size="8" clip-path="url(#id41)" text-decoration="none" fill="#000000" font-family="Arial,Arial" font-style="normal" font-weight="normal"><tspan x="7.5" xml:space="preserve" y="9.516378516185625" textLength="23.5">URL A</tspan></text></g></g><g transform="translate(347.0 472.16550000000007)"><path fill="#c3abd0" fill-opacity="1.0" d="M41.000000000000064 15.532757032371299 L0.0 15.532757032371299 L0.0 0.0 L41.000000000000064 0.0 L41.000000000000064 15.532757032371299z" stroke-width="1.0" stroke-linejoin="round" stroke="#000000"/><g transform="translate(1.0 1.0)"><clipPath id="id42"><path d="M0 0 L39.0 0 L39.0 13.53275703237125 L0 13.53275703237125z"/></clipPath><text font-size="8" clip-path="url(#id42)" text-decoration="none" fill="#000000" font-family="Arial,Arial" font-style="normal" font-weight="normal"><tspan x="7.5" xml:space="preserve" y="9.516378516185625" textLength="23.5">URL A</tspan></text></g></g><g transform="translate(281.0 472.16550000000007)"><path fill="#c3abd0" fill-opacity="1.0" d="M41.000000000000064 15.532757032371299 L0.0 15.532757032371299 L0.0 0.0 L41.000000000000064 0.0 L41.000000000000064 15.532757032371299z" stroke-width="1.0" stroke-linejoin="round" stroke="#000000"/><g transform="translate(1.0 1.0)"><clipPath id="id43"><path d="M0 0 L39.0 0 L39.0 13.53275703237125 L0 13.53275703237125z"/></clipPath><text font-size="8" clip-path="url(#id43)" text-decoration="none" fill="#000000" font-family="Arial,Arial" font-style="normal" font-weight="normal"><tspan x="7.5" xml:space="preserve" y="9.516378516185625" textLength="23.5">URL A</tspan></text></g></g><g transform="translate(215.0 472.16550000000007)"><path fill="#c3abd0" fill-opacity="1.0" d="M41.000000000000064 15.532757032371299 L0.0 15.532757032371299 L0.0 0.0 L41.000000000000064 0.0 L41.000000000000064 15.532757032371299z" stroke-width="1.0" stroke-linejoin="round" stroke="#000000"/><g transform="translate(1.0 1.0)"><clipPath id="id44"><path d="M0 0 L39.0 0 L39.0 13.53275703237125 L0 13.53275703237125z"/></clipPath><text font-size="8" clip-path="url(#id44)" text-decoration="none" fill="#000000" font-family="Arial,Arial" font-style="normal" font-weight="normal"><tspan x="7.5" xml:space="preserve" y="9.516378516185625" textLength="23.5">URL A</tspan></text></g></g><g transform="translate(50.0 178.16549999999998)"><clipPath id="id45"><path d="M0 0 L104.16666666666663 0 L104.16666666666663 20.66666666666663 L0 20.66666666666663z"/></clipPath><text font-size="12" clip-path="url(#id45)" text-decoration="none" fill="#000000" font-family="Arial,Arial" font-style="normal" font-weight="normal"><tspan x="2.0" xml:space="preserve" y="14.583333333333314" textLength="99.0">Save to each filter.</tspan></text></g><g transform="translate(315.33333333333337 60.66666666666663)"><clipPath id="id46"><path d="M0 0 L230.66666666666663 0 L230.66666666666663 20.66666666666663 L0 20.66666666666663z"/></clipPath><text font-size="12" clip-path="url(#id46)" text-decoration="none" fill="#000000" font-family="Arial,Arial" font-style="normal" font-weight="normal"><tspan x="2.0" xml:space="preserve" y="14.583333333333314" textLength="218.5">The same URL does not download twice.</tspan></text></g><path fill="none" marker-end="url(#id47)" d="M281.16666666666663 402.3333333333335 L281.16666666666663 414.16666666666674 Q281.16666666666663 424.16666666666674 281.25258333333335 424.16666666666674 L281.25258333333335 424.16666666666674 Q281.33850000000007 424.16666666666674 281.33850000000007 434.16666666666674 L281.33850000000007 446.0" stroke-width="1.0" stroke-linejoin="round" stroke="#000000"/><path fill="none" marker-end="url(#id48)" d="M281.16666666666663 402.3333333333335 L281.16666666666663 414.16666666666674 Q281.16666666666663 424.16666666666674 271.16666666666663 424.16666666666674 L225.33850000000007 424.16666666666674 Q215.33850000000007 424.16666666666674 215.33850000000007 434.16666666666674 L215.33850000000007 446.0" stroke-width="1.0" stroke-linejoin="round" stroke="#000000"/><path fill="none" marker-end="url(#id49)" d="M281.16666666666663 402.3333333333335 L281.16666666666663 414.16666666666674 Q281.16666666666663 424.16666666666674 291.16666666666663 424.16666666666674 L337.33850000000007 424.16666666666674 Q347.33850000000007 424.16666666666674 347.33850000000007 434.16666666666674 L347.33850000000007 446.0" stroke-width="1.0" stroke-linejoin="round" stroke="#000000"/><path fill="none" stroke-linejoin="round" stroke-dasharray="3.0 3.0" d="M221.16666666666669 207.33333333333337 L161.33850000000007 207.33333333333337 Q151.33850000000007 207.33333333333337 151.33850000000007 214.83333333333337 L151.33850000000007 222.33333333333337" stroke="#000000" stroke-width="1.0" marker-end="url(#id50)"/><path fill="none" stroke-linejoin="round" stroke-dasharray="3.0 3.0" d="M221.16666666666669 307.33333333333337 L161.33850000000007 307.33333333333337 Q151.33850000000007 307.33333333333337 151.33850000000007 316.1666666666667 L151.33850000000007 325.0" stroke="#000000" stroke-width="1.0" marker-end="url(#id51)"/><path fill="none" stroke-linejoin="round" stroke-dasharray="3.0 3.0" d="M221.16666666666669 307.33333333333337 L83.33850000000007 307.33333333333337 Q73.33850000000007 307.33333333333337 73.33850000000007 316.1666666666667 L73.33850000000007 325.0" stroke="#000000" stroke-width="1.0" marker-end="url(#id52)"/><g transform="translate(388.0 108.0)"><clipPath id="id53"><path d="M0 0 L138.0 0 L138.0 20.6666666666666 L0 20.6666666666666z"/></clipPath><text font-size="12" clip-path="url(#id53)" text-decoration="none" fill="#000000" font-family="Arial,Arial" font-style="normal" font-weight="normal"><tspan x="2.0" xml:space="preserve" y="14.5833333333333" textLength="123.0">Configuration example.</tspan></text></g></g></svg>