<?xml version="1.0" encoding="utf-8"?>
<!-- Generator: Adobe Illustrator 17.1.0, SVG Export Plug-In . SVG Version: 6.00 Build 0)  -->
<!DOCTYPE svg PUBLIC "-//W3C//DTD SVG 1.1//EN" "http://www.w3.org/Graphics/SVG/1.1/DTD/svg11.dtd">
<svg version="1.1" id="レイヤー_1" xmlns="http://www.w3.org/2000/svg" xmlns:xlink="http://www.w3.org/1999/xlink" x="0px"
	 y="0px" viewBox="0 0 290 140" enable-background="new 0 0 290 140" xml:space="preserve">
<line fill="none" stroke="#000000" stroke-width="1.3" stroke-miterlimit="10" x1="51.023" y1="125.136" x2="51.023" y2="50.136"/>
<rect x="57.373" y="67.411" transform="matrix(-0.9511 -0.309 0.309 -0.9511 99.3173 160.5533)" stroke="#000000" stroke-miterlimit="10" width="10" height="10"/>
<rect x="22.247" y="37.411" transform="matrix(-0.454 -0.891 0.891 -0.454 1.8286 85.9423)" stroke="#000000" stroke-miterlimit="10" width="10" height="10"/>
<rect x="53.749" y="21.36" transform="matrix(-0.454 -0.891 0.891 -0.454 61.9335 90.6727)" stroke="#000000" stroke-miterlimit="10" width="10" height="10"/>
<rect x="69.809" y="52.879" transform="matrix(-0.454 -0.891 0.891 -0.454 57.2006 150.8105)" stroke="#000000" stroke-miterlimit="10" width="10" height="10"/>
<rect x="38.307" y="68.93" transform="matrix(-0.454 -0.891 0.891 -0.454 -2.9043 146.0802)" stroke="#000000" stroke-miterlimit="10" width="10" height="10"/>
<rect x="68.299" y="33.787" transform="matrix(-0.9511 -0.309 0.309 -0.9511 131.0241 98.3253)" stroke="#000000" stroke-miterlimit="10" width="10" height="10"/>
<rect x="34.674" y="22.861" transform="matrix(-0.9511 -0.309 0.309 -0.9511 68.7961 66.6185)" stroke="#000000" stroke-miterlimit="10" width="10" height="10"/>
<rect x="23.748" y="56.486" transform="matrix(-0.9511 -0.309 0.309 -0.9511 37.0894 128.8465)" stroke="#000000" stroke-miterlimit="10" width="10" height="10"/>
<g>
	<path d="M70.588,87.156c-0.36,0-0.68-0.14-0.96-0.42c-0.28-0.279-0.42-0.66-0.42-1.14c0-0.439,0.14-0.8,0.42-1.08
		c0.28-0.279,0.6-0.42,0.96-0.42c0.36,0,0.68,0.141,0.96,0.42c0.279,0.28,0.42,0.641,0.42,1.08c0,0.48-0.15,0.861-0.45,1.14
		C71.219,87.017,70.908,87.156,70.588,87.156z M69.929,125.136v-27.6h1.32v27.6H69.929z"/>
	<path d="M86.789,101.376c0.759-1,1.62-1.85,2.58-2.55c0.96-0.699,2-1.23,3.12-1.59c1.119-0.36,2.28-0.54,3.48-0.54
		c1.92,0,3.519,0.34,4.8,1.02c1.28,0.681,2.3,1.581,3.06,2.7c0.759,1.121,1.299,2.38,1.62,3.78c0.32,1.4,0.48,2.82,0.48,4.26v16.68
		h-1.32v-16.56c0-1.119-0.12-2.319-0.36-3.6c-0.24-1.279-0.69-2.439-1.35-3.48c-0.66-1.04-1.55-1.91-2.67-2.61
		c-1.12-0.699-2.541-1.05-4.26-1.05c-1.521,0-2.95,0.31-4.29,0.93c-1.341,0.621-2.5,1.51-3.48,2.67
		c-0.98,1.161-1.761,2.571-2.34,4.23c-0.581,1.661-0.87,3.55-0.87,5.67v13.8h-1.32v-20.64c0-0.439-0.01-0.979-0.03-1.62
		c-0.021-0.64-0.041-1.29-0.06-1.95c-0.021-0.66-0.051-1.29-0.09-1.89c-0.041-0.6-0.081-1.1-0.12-1.5h1.32
		c0.04,0.4,0.069,0.9,0.09,1.5c0.02,0.6,0.039,1.25,0.06,1.95c0.02,0.7,0.039,1.38,0.06,2.04c0.02,0.66,0.03,1.25,0.03,1.77h0.12
		C85.448,103.517,86.028,102.376,86.789,101.376z"/>
	<path d="M143.428,125.136h-1.8l-9-26.16h-0.12l-8.94,26.16h-1.8l-8.04-27.6h1.38l7.56,26.28h0.12l8.88-26.28h1.86l8.94,26.28h0.12
		l7.56-26.28h1.38L143.428,125.136z"/>
	<path d="M161.128,104.796c0.399-1.28,0.969-2.42,1.71-3.42c0.74-1,1.59-1.85,2.55-2.55c0.96-0.699,2-1.23,3.12-1.59
		c1.12-0.36,2.28-0.54,3.48-0.54c1.92,0,3.52,0.34,4.8,1.02c1.279,0.681,2.299,1.581,3.06,2.7c0.76,1.121,1.3,2.38,1.62,3.78
		c0.32,1.4,0.48,2.82,0.48,4.26v16.68h-1.32v-16.56c0-1.119-0.12-2.319-0.36-3.6c-0.24-1.279-0.69-2.439-1.35-3.48
		c-0.66-1.04-1.551-1.91-2.67-2.61c-1.121-0.699-2.541-1.05-4.26-1.05c-1.521,0-2.95,0.31-4.29,0.93c-1.34,0.621-2.5,1.51-3.48,2.67
		c-0.98,1.161-1.761,2.571-2.34,4.23c-0.581,1.661-0.87,3.55-0.87,5.67v13.8h-1.32v-45.36h1.32v25.02H161.128z"/>
	<path d="M192.747,111.036c0,1.68,0.25,3.34,0.75,4.98c0.5,1.641,1.26,3.111,2.28,4.41c1.02,1.3,2.31,2.35,3.87,3.15
		c1.56,0.801,3.399,1.2,5.52,1.2c2.16,0,4.08-0.43,5.76-1.29c1.68-0.86,3.14-2.109,4.38-3.75l0.96,0.84
		c-1.36,1.761-2.95,3.101-4.77,4.02c-1.821,0.92-3.93,1.38-6.33,1.38c-2.04,0-3.9-0.37-5.58-1.11c-1.68-0.74-3.13-1.77-4.35-3.09
		c-1.22-1.32-2.16-2.9-2.82-4.74c-0.66-1.839-0.99-3.84-0.99-6c0-2.079,0.34-4,1.021-5.76c0.682-1.76,1.614-3.279,2.797-4.56
		c1.183-1.28,2.576-2.27,4.18-2.97c1.603-0.699,3.327-1.05,5.171-1.05c2.165,0,4.049,0.38,5.653,1.14c1.604,0.76,2.937,1.76,4,3
		c1.062,1.24,1.854,2.65,2.375,4.23c0.521,1.581,0.782,3.19,0.782,4.83v1.14H192.747z M216.087,109.896
		c-0.04-1.8-0.351-3.439-0.93-4.92c-0.581-1.479-1.371-2.75-2.37-3.81c-1-1.059-2.2-1.879-3.6-2.46c-1.4-0.579-2.96-0.87-4.68-0.87
		c-2.08,0-3.86,0.43-5.34,1.29c-1.48,0.86-2.69,1.92-3.63,3.18c-0.94,1.26-1.63,2.58-2.07,3.96c-0.44,1.38-0.66,2.59-0.66,3.63
		H216.087z"/>
	<path d="M226.107,111.036c0,1.68,0.25,3.34,0.75,4.98c0.5,1.641,1.26,3.111,2.28,4.41c1.02,1.3,2.31,2.35,3.87,3.15
		c1.56,0.801,3.399,1.2,5.52,1.2c2.16,0,4.081-0.43,5.76-1.29c1.68-0.86,3.139-2.109,4.379-3.75l0.961,0.84
		c-1.361,1.761-2.951,3.101-4.77,4.02c-1.82,0.92-3.931,1.38-6.331,1.38c-2.04,0-3.9-0.37-5.58-1.11c-1.68-0.74-3.13-1.77-4.35-3.09
		c-1.22-1.32-2.16-2.9-2.82-4.74c-0.66-1.839-0.99-3.84-0.99-6c0-2.079,0.34-4,1.021-5.76c0.682-1.76,1.614-3.279,2.797-4.56
		c1.183-1.28,2.576-2.27,4.18-2.97c1.603-0.699,3.327-1.05,5.171-1.05c2.165,0,4.049,0.38,5.652,1.14c1.604,0.76,2.938,1.76,4,3
		c1.062,1.24,1.854,2.65,2.375,4.23c0.521,1.581,0.783,3.19,0.783,4.83v1.14H226.107z M249.447,109.896
		c-0.041-1.8-0.352-3.439-0.93-4.92c-0.58-1.479-1.371-2.75-2.371-3.81c-1-1.059-2.199-1.879-3.6-2.46
		c-1.4-0.579-2.96-0.87-4.68-0.87c-2.08,0-3.86,0.43-5.34,1.29c-1.48,0.86-2.69,1.92-3.63,3.18c-0.94,1.26-1.63,2.58-2.07,3.96
		c-0.44,1.38-0.66,2.59-0.66,3.63H249.447z"/>
	<path d="M260.547,125.136v-45.36h1.32v45.36H260.547z"/>
</g>
<line fill="none" stroke="#000000" stroke-width="1.3" stroke-miterlimit="10" x1="62.373" y1="72.411" x2="39.674" y2="27.861"/>
<line fill="none" stroke="#000000" stroke-width="1.3" stroke-miterlimit="10" x1="43.298" y1="73.913" x2="58.749" y2="26.36"/>
<line fill="none" stroke="#000000" stroke-width="1.3" stroke-miterlimit="10" x1="74.8" y1="57.862" x2="27.247" y2="42.411"/>
<line fill="none" stroke="#000000" stroke-width="1.3" stroke-miterlimit="10" x1="28.748" y1="61.486" x2="73.299" y2="38.787"/>
<g>
</g>
<g>
</g>
<g>
</g>
<g>
</g>
<g>
</g>
<g>
</g>
</svg>
